<svg xmlns="http://www.w3.org/2000/svg" xmlns:xlink="http://www.w3.org/1999/xlink" width="500" zoomAndPan="magnify" viewBox="0 0 375 374.999991" height="500" preserveAspectRatio="xMidYMid meet" version="1.0"><defs><g/><clipPath id="48fea6082a"><path d="M 104 83.621094 L 268.871094 83.621094 L 268.871094 243.371094 L 104 243.371094 Z M 104 83.621094 " clip-rule="nonzero"/></clipPath></defs><g clip-path="url(#48fea6082a)"><path fill="#ac0005" d="M 236.589844 200.261719 L 239.574219 178.496094 L 256.53125 166.359375 C 251.992188 177.0625 245.339844 188.375 236.589844 200.261719 Z M 115.882812 166.359375 L 132.832031 178.496094 L 135.820312 200.261719 C 127.074219 188.375 120.414062 177.058594 115.882812 166.359375 Z M 109.617188 123.078125 C 110.269531 119.777344 111.222656 116.785156 112.332031 114.042969 L 119.714844 132.515625 L 108.753906 138.609375 C 108.375 133.226562 108.636719 128.03125 109.617188 123.078125 Z M 129.730469 92.179688 C 130.6875 91.730469 131.648438 91.324219 132.605469 90.949219 L 139.414062 95.449219 L 117.816406 103.945312 C 123.511719 95.921875 129.738281 92.183594 129.730469 92.179688 Z M 152.21875 88.515625 L 144.230469 93.335938 L 137.980469 89.203125 C 140.96875 88.457031 143.9375 88.066406 146.859375 88.066406 C 148.707031 88.066406 150.492188 88.230469 152.21875 88.515625 Z M 182.605469 109.605469 L 171.164062 112.167969 L 148.21875 96.085938 L 158.238281 90.039062 C 170.640625 94.378906 179.160156 104.753906 182.605469 109.605469 Z M 214.167969 90.035156 L 224.191406 96.085938 L 201.246094 112.167969 L 189.808594 109.605469 C 193.234375 104.753906 201.738281 94.371094 214.167969 90.035156 Z M 234.441406 89.199219 L 228.183594 93.335938 L 220.1875 88.515625 C 221.917969 88.230469 223.703125 88.066406 225.558594 88.066406 C 228.484375 88.066406 231.464844 88.457031 234.441406 89.199219 Z M 254.613281 103.953125 L 232.996094 95.449219 L 239.820312 90.9375 C 240.726562 91.292969 241.628906 91.675781 242.519531 92.097656 C 242.621094 92.15625 248.902344 95.890625 254.613281 103.953125 Z M 238.464844 173.859375 L 230.839844 156.222656 L 249.195312 137.421875 L 258.496094 159.515625 Z M 200.488281 222.363281 L 205.109375 226.40625 C 200.671875 229.378906 196.484375 232.089844 193.085938 234.25 Z M 171.929688 222.363281 L 179.328125 234.253906 C 175.929688 232.089844 171.738281 229.382812 167.304688 226.40625 Z M 123.214844 137.421875 L 141.570312 156.222656 L 133.941406 173.859375 L 113.914062 159.515625 Z M 141.984375 119.957031 L 123.578125 130.347656 L 115.324219 109.683594 L 141.984375 99.1875 Z M 146.371094 118.414062 L 146.371094 100.179688 L 165.484375 113.578125 Z M 226.039062 100.179688 L 226.039062 118.414062 L 206.925781 113.578125 Z M 230.429688 125.03125 L 246.351562 134.023438 L 230.429688 150.332031 Z M 215.671875 179.382812 L 227.859375 160.394531 L 234.433594 175.613281 Z M 212.726562 184.492188 L 234.933594 180.023438 L 231.382812 205.933594 L 203.335938 215.523438 Z M 186.203125 206.261719 L 197.265625 219.210938 L 186.203125 236.988281 L 175.148438 219.210938 Z M 159.6875 184.492188 L 169.074219 215.523438 L 141.03125 205.933594 L 137.476562 180.023438 Z M 144.558594 160.398438 L 156.734375 179.382812 L 137.980469 175.613281 Z M 141.984375 150.332031 L 126.054688 134.023438 L 141.984375 125.03125 Z M 173.363281 214.511719 L 165.59375 188.863281 L 183.066406 203.152344 Z M 199.046875 214.511719 L 189.34375 203.152344 L 206.816406 188.863281 Z M 248.832031 130.347656 L 230.429688 119.957031 L 230.429688 99.1875 L 257.085938 109.683594 Z M 184.925781 127.621094 C 184.960938 127.644531 185.007812 127.65625 185.046875 127.683594 C 185.101562 127.71875 185.144531 127.769531 185.207031 127.796875 C 185.242188 127.816406 185.289062 127.808594 185.332031 127.824219 C 185.609375 127.957031 185.902344 128.035156 186.203125 128.035156 C 186.507812 128.035156 186.808594 127.957031 187.089844 127.824219 C 187.125 127.808594 187.167969 127.816406 187.203125 127.796875 C 187.265625 127.769531 187.3125 127.71875 187.367188 127.683594 C 187.40625 127.660156 187.457031 127.644531 187.492188 127.621094 L 202.164062 116.9375 L 226.039062 122.980469 L 226.039062 155.074219 L 209.355469 181.082031 L 186.203125 200.023438 L 163.054688 181.082031 L 146.371094 155.074219 L 146.371094 122.980469 L 170.242188 116.9375 Z M 184.007812 121.5 L 175.953125 115.628906 L 184.007812 113.824219 Z M 188.402344 113.824219 L 196.457031 115.628906 L 188.402344 121.5 Z M 109.253906 143.378906 L 117.976562 138.539062 L 111.488281 153.960938 C 110.472656 150.351562 109.738281 146.824219 109.253906 143.378906 Z M 149.085938 213.359375 L 168.097656 219.859375 L 163.53125 223.847656 C 158.558594 220.441406 153.496094 216.816406 149.085938 213.359375 Z M 208.882812 223.847656 L 204.3125 219.859375 L 223.320312 213.363281 C 218.910156 216.816406 213.855469 220.441406 208.882812 223.847656 Z M 260.925781 153.960938 L 254.429688 138.539062 L 263.15625 143.378906 C 262.675781 146.824219 261.941406 150.351562 260.925781 153.960938 Z M 263.65625 138.609375 L 252.699219 132.515625 L 260.085938 114.027344 C 261.175781 116.746094 262.125 119.707031 262.777344 122.976562 C 263.769531 127.96875 264.039062 133.1875 263.65625 138.609375 Z M 267.078125 122.105469 C 262.425781 98.777344 245.433594 88.679688 244.550781 88.175781 C 238.175781 85.164062 231.792969 83.640625 225.558594 83.640625 C 221.363281 83.640625 217.476562 84.328125 213.882812 85.449219 C 213.871094 85.457031 213.863281 85.457031 213.847656 85.464844 C 199.582031 89.929688 190.050781 101.535156 186.203125 107.027344 C 182.367188 101.535156 172.832031 89.929688 158.558594 85.457031 C 158.546875 85.457031 158.539062 85.457031 158.527344 85.449219 C 154.929688 84.328125 151.046875 83.640625 146.859375 83.640625 C 140.625 83.640625 134.234375 85.164062 127.703125 88.261719 C 126.984375 88.679688 109.988281 98.777344 105.335938 122.105469 C 104.113281 128.207031 103.871094 134.601562 104.5625 141.269531 C 104.140625 141.929688 104.054688 142.78125 104.457031 143.515625 C 104.582031 143.738281 104.746094 143.910156 104.917969 144.070312 C 107.542969 162.582031 117.300781 183.125 134.167969 205.457031 C 143.511719 217.8125 183.386719 242.019531 185.078125 243.042969 C 185.09375 243.050781 185.101562 243.054688 185.121094 243.058594 C 185.230469 243.125 185.347656 243.167969 185.46875 243.210938 C 185.519531 243.234375 185.566406 243.265625 185.621094 243.277344 C 185.628906 243.28125 185.640625 243.28125 185.648438 243.285156 C 185.816406 243.328125 185.996094 243.351562 186.164062 243.355469 C 186.179688 243.355469 186.1875 243.359375 186.203125 243.359375 C 186.203125 243.359375 186.203125 243.359375 186.207031 243.359375 C 186.222656 243.359375 186.230469 243.355469 186.242188 243.355469 C 186.421875 243.351562 186.59375 243.328125 186.765625 243.285156 C 186.777344 243.28125 186.785156 243.28125 186.800781 243.277344 C 186.847656 243.265625 186.886719 243.234375 186.941406 243.214844 C 187.058594 243.175781 187.179688 243.128906 187.296875 243.058594 C 187.308594 243.054688 187.324219 243.050781 187.335938 243.042969 C 189.027344 242.019531 228.902344 217.8125 238.242188 205.457031 C 255.109375 183.125 264.871094 162.578125 267.488281 144.066406 C 267.667969 143.910156 267.832031 143.738281 267.953125 143.515625 C 268.355469 142.78125 268.273438 141.933594 267.847656 141.273438 C 268.542969 134.605469 268.296875 128.207031 267.078125 122.105469 " fill-opacity="1" fill-rule="nonzero"/></g><g fill="#ac0005" fill-opacity="1"><g transform="translate(167.1818, 152.85438)"><g><path d="M 0.9375 -2.40625 L -0.4375 -12 L -0.609375 -11.984375 L -2 -14.0625 L -1.46875 -19.28125 L 5.109375 -20.21875 L 5.1875 -20.875 L 9.765625 -21.53125 L 11.125 -19.390625 L 10.546875 -14.125 L 11.71875 -12.296875 L 11.3125 -8.734375 L 12.484375 -6.953125 L 11.90625 -1.6875 L 2.296875 -0.328125 Z M 10.140625 -4.15625 L 10.578125 -8.40625 L 4.875 -7.59375 L 4.515625 -10.140625 L 9.46875 -10.84375 L 9.8125 -13.8125 L 4.109375 -13 L 3.78125 -15.359375 L 8.734375 -16.0625 L 9.203125 -20.984375 L 5.6875 -20.484375 L 5.59375 -19.765625 L -1 -18.828125 L -1.421875 -14.625 L -0.3125 -14.78125 L 1.375 -2.90625 Z M 10.140625 -4.15625 "/></g></g></g><g fill="#ac0005" fill-opacity="1"><g transform="translate(179.918295, 150.853575)"><g><path d="M 1.359375 -2.15625 L 1.5 -12 L 1.265625 -12 L 0.21875 -14.171875 L 1.609375 -19.28125 L 8.703125 -19.171875 C 10.054688 -19.148438 11.125 -18.96875 11.90625 -18.625 C 12.6875 -18.289062 13.328125 -17.71875 13.828125 -16.90625 C 14.078125 -16.5 14.441406 -15.710938 14.921875 -14.546875 C 15.015625 -14.285156 15.09375 -14.066406 15.15625 -13.890625 C 15.21875 -13.722656 15.265625 -13.554688 15.296875 -13.390625 C 15.335938 -13.234375 15.359375 -13.078125 15.359375 -12.921875 C 15.367188 -12.773438 15.375 -12.601562 15.375 -12.40625 C 15.363281 -11.738281 15.242188 -11.144531 15.015625 -10.625 C 14.796875 -10.101562 14.46875 -9.6875 14.03125 -9.375 C 14.101562 -9.257812 14.195312 -9.070312 14.3125 -8.8125 C 14.4375 -8.5625 14.609375 -8.253906 14.828125 -7.890625 C 15.140625 -7.234375 15.378906 -6.609375 15.546875 -6.015625 C 15.722656 -5.421875 15.804688 -4.878906 15.796875 -4.390625 C 15.785156 -3.617188 15.609375 -2.921875 15.265625 -2.296875 C 14.929688 -1.679688 14.445312 -1.164062 13.8125 -0.75 C 13.300781 -0.4375 12.703125 -0.203125 12.015625 -0.046875 C 11.335938 0.0976562 10.445312 0.160156 9.34375 0.140625 L 2.40625 0.03125 Z M 1.921875 -2.65625 L 8.09375 -2.5625 C 9.175781 -2.550781 10.070312 -2.617188 10.78125 -2.765625 C 11.5 -2.910156 12.078125 -3.140625 12.515625 -3.453125 C 13.617188 -4.210938 14.179688 -5.335938 14.203125 -6.828125 C 14.234375 -8.847656 13.210938 -10.222656 11.140625 -10.953125 C 12.023438 -11.296875 12.6875 -11.757812 13.125 -12.34375 C 13.5625 -12.925781 13.785156 -13.671875 13.796875 -14.578125 C 13.804688 -15.273438 13.65625 -15.929688 13.34375 -16.546875 C 13.03125 -17.160156 12.613281 -17.617188 12.09375 -17.921875 C 11.257812 -18.390625 10.097656 -18.632812 8.609375 -18.65625 L 2.046875 -18.75 L 0.890625 -14.65625 L 2.09375 -14.640625 Z M 6.203125 -15.21875 L 7.84375 -15.203125 C 8.59375 -15.191406 9.140625 -15.054688 9.484375 -14.796875 C 9.828125 -14.546875 9.992188 -14.140625 9.984375 -13.578125 C 9.972656 -12.960938 9.773438 -12.523438 9.390625 -12.265625 C 9.015625 -12.015625 8.382812 -11.894531 7.5 -11.90625 L 6.140625 -11.921875 Z M 6.125 -9.921875 L 7.53125 -9.90625 C 9.226562 -9.882812 10.066406 -9.253906 10.046875 -8.015625 C 10.035156 -7.398438 9.796875 -6.921875 9.328125 -6.578125 C 9.109375 -6.421875 8.863281 -6.316406 8.59375 -6.265625 C 8.332031 -6.210938 7.929688 -6.191406 7.390625 -6.203125 L 6.0625 -6.21875 Z M 7.703125 -6.6875 C 8.140625 -6.695312 8.429688 -6.71875 8.578125 -6.75 C 8.722656 -6.789062 8.890625 -6.894531 9.078125 -7.0625 L 7.71875 -7.09375 Z M 7.703125 -6.6875 "/></g></g></g><g fill="#ac0005" fill-opacity="1"><g transform="translate(194.939512, 151.16351)"><g><path d="M 0.390625 -2.6875 L 2.4375 -7.109375 C 2.65625 -6.960938 2.828125 -6.847656 2.953125 -6.765625 C 3.078125 -6.679688 3.191406 -6.613281 3.296875 -6.5625 C 3.398438 -6.507812 3.492188 -6.472656 3.578125 -6.453125 C 3.660156 -6.441406 3.753906 -6.425781 3.859375 -6.40625 C 4.117188 -6.363281 4.359375 -6.394531 4.578125 -6.5 C 4.796875 -6.601562 4.96875 -6.773438 5.09375 -7.015625 C 5.175781 -7.179688 5.242188 -7.382812 5.296875 -7.625 C 5.359375 -7.863281 5.421875 -8.195312 5.484375 -8.625 L 5.921875 -11.375 L 3.296875 -11.796875 L 2.546875 -14.140625 L 4.546875 -18.8125 L 12.03125 -17.640625 L 12.84375 -15.3125 L 11.25 -5.28125 C 11.144531 -4.613281 11.050781 -4.054688 10.96875 -3.609375 C 10.882812 -3.160156 10.78125 -2.769531 10.65625 -2.4375 C 10.53125 -2.113281 10.390625 -1.820312 10.234375 -1.5625 C 10.085938 -1.300781 9.910156 -1.03125 9.703125 -0.75 C 9.128906 -0.0195312 8.40625 0.5 7.53125 0.8125 C 6.664062 1.132812 5.757812 1.222656 4.8125 1.078125 C 4.207031 0.984375 3.570312 0.804688 2.90625 0.546875 C 2.238281 0.285156 1.597656 -0.03125 0.984375 -0.40625 Z M 1.0625 -2.96875 C 1.375 -2.78125 1.660156 -2.625 1.921875 -2.5 C 2.179688 -2.375 2.421875 -2.257812 2.640625 -2.15625 C 2.867188 -2.0625 3.085938 -1.988281 3.296875 -1.9375 C 3.515625 -1.882812 3.75 -1.835938 4 -1.796875 C 5.164062 -1.617188 6.226562 -1.773438 7.1875 -2.265625 C 8.144531 -2.765625 8.847656 -3.53125 9.296875 -4.5625 C 9.359375 -4.726562 9.414062 -4.875 9.46875 -5 C 9.519531 -5.132812 9.570312 -5.316406 9.625 -5.546875 C 9.6875 -5.773438 9.75 -6.082031 9.8125 -6.46875 C 9.882812 -6.863281 9.972656 -7.410156 10.078125 -8.109375 L 11.515625 -17.1875 L 4.859375 -18.234375 L 3.1875 -14.359375 L 6.8125 -13.78125 L 5.890625 -7.875 C 5.648438 -6.351562 4.945312 -5.6875 3.78125 -5.875 C 3.582031 -5.90625 3.40625 -5.953125 3.25 -6.015625 C 3.09375 -6.085938 2.894531 -6.203125 2.65625 -6.359375 Z M 1.0625 -2.96875 "/></g></g></g><g fill="#ffffff" fill-opacity="1"><g transform="translate(155.164124, 167.95748)"><g><path d="M 1.484375 0.046875 C 1.273438 0.046875 1.097656 -0.0195312 0.953125 -0.15625 C 0.816406 -0.289062 0.75 -0.457031 0.75 -0.65625 C 0.75 -1.007812 0.765625 -1.535156 0.796875 -2.234375 C 0.828125 -2.929688 0.84375 -3.457031 0.84375 -3.8125 C 0.84375 -4.195312 0.832031 -4.773438 0.8125 -5.546875 C 0.800781 -6.328125 0.796875 -6.910156 0.796875 -7.296875 C 0.796875 -7.484375 0.890625 -7.671875 1.078125 -7.859375 C 1.265625 -8.054688 1.460938 -8.15625 1.671875 -8.15625 C 1.785156 -8.15625 2.078125 -8.046875 2.546875 -7.828125 C 3.085938 -7.566406 3.40625 -7.421875 3.5 -7.390625 C 4.53125 -7.054688 5.40625 -6.546875 6.125 -5.859375 C 6.988281 -5.023438 7.421875 -4.109375 7.421875 -3.109375 C 7.421875 -2.503906 7.269531 -1.929688 6.96875 -1.390625 C 6.675781 -0.828125 6.269531 -0.378906 5.75 -0.046875 C 5.175781 0.328125 4.363281 0.515625 3.3125 0.515625 C 3.050781 0.515625 2.753906 0.476562 2.421875 0.40625 C 2.023438 0.3125 1.710938 0.191406 1.484375 0.046875 Z M 4.421875 -5.328125 C 4.085938 -5.546875 3.363281 -5.882812 2.25 -6.34375 L 2.25 -1.15625 C 2.382812 -1.0625 2.539062 -0.992188 2.71875 -0.953125 C 2.894531 -0.910156 3.085938 -0.890625 3.296875 -0.890625 C 4.054688 -0.890625 4.597656 -0.992188 4.921875 -1.203125 C 5.234375 -1.398438 5.476562 -1.671875 5.65625 -2.015625 C 5.84375 -2.359375 5.9375 -2.71875 5.9375 -3.09375 C 5.9375 -3.957031 5.429688 -4.703125 4.421875 -5.328125 Z M 4.421875 -5.328125 "/></g></g></g><g fill="#ffffff" fill-opacity="1"><g transform="translate(162.902447, 167.95748)"><g><path d="M 3.171875 0.234375 C 2.335938 0.234375 1.65625 0.0351562 1.125 -0.359375 C 0.539062 -0.796875 0.25 -1.414062 0.25 -2.21875 C 0.25 -3.101562 0.476562 -3.847656 0.9375 -4.453125 C 1.457031 -5.140625 2.15625 -5.484375 3.03125 -5.484375 C 3.644531 -5.484375 4.148438 -5.382812 4.546875 -5.1875 C 5.078125 -4.925781 5.34375 -4.523438 5.34375 -3.984375 C 5.34375 -3.597656 5.128906 -3.253906 4.703125 -2.953125 C 4.503906 -2.816406 4.109375 -2.617188 3.515625 -2.359375 L 1.75 -1.578125 C 1.914062 -1.398438 2.117188 -1.265625 2.359375 -1.171875 C 2.597656 -1.078125 2.867188 -1.03125 3.171875 -1.03125 C 3.640625 -1.03125 4.035156 -1.128906 4.359375 -1.328125 C 4.648438 -1.492188 4.882812 -1.578125 5.0625 -1.578125 C 5.425781 -1.578125 5.609375 -1.398438 5.609375 -1.046875 C 5.609375 -0.648438 5.316406 -0.328125 4.734375 -0.078125 C 4.242188 0.128906 3.722656 0.234375 3.171875 0.234375 Z M 3.03125 -4.203125 C 2.707031 -4.203125 2.429688 -4.09375 2.203125 -3.875 C 1.972656 -3.664062 1.785156 -3.34375 1.640625 -2.90625 C 2.035156 -3.082031 2.429688 -3.253906 2.828125 -3.421875 C 3.296875 -3.628906 3.671875 -3.828125 3.953125 -4.015625 C 3.710938 -4.140625 3.40625 -4.203125 3.03125 -4.203125 Z M 3.03125 -4.203125 "/></g></g></g><g fill="#ffffff" fill-opacity="1"><g transform="translate(168.897297, 167.95748)"><g><path d="M 4.21875 -3.84375 C 3.875 -3.84375 3.664062 -3.984375 3.59375 -4.265625 C 3.457031 -4.296875 3.316406 -4.3125 3.171875 -4.3125 C 2.328125 -4.3125 1.90625 -4.195312 1.90625 -3.96875 C 1.90625 -3.832031 2.160156 -3.644531 2.671875 -3.40625 C 3.359375 -3.09375 3.828125 -2.847656 4.078125 -2.671875 C 4.578125 -2.304688 4.828125 -1.890625 4.828125 -1.421875 C 4.828125 -0.828125 4.550781 -0.375 4 -0.0625 C 3.539062 0.1875 2.984375 0.3125 2.328125 0.3125 C 1.867188 0.3125 1.445312 0.238281 1.0625 0.09375 C 0.53125 -0.09375 0.265625 -0.378906 0.265625 -0.765625 C 0.265625 -1.117188 0.472656 -1.296875 0.890625 -1.296875 C 1.054688 -1.296875 1.289062 -1.242188 1.59375 -1.140625 C 1.894531 -1.035156 2.128906 -0.984375 2.296875 -0.984375 C 3.003906 -0.984375 3.359375 -1.128906 3.359375 -1.421875 C 3.359375 -1.597656 3.113281 -1.789062 2.625 -2 C 1.90625 -2.320312 1.445312 -2.550781 1.25 -2.6875 C 0.75 -3.039062 0.5 -3.460938 0.5 -3.953125 C 0.5 -4.660156 0.875 -5.132812 1.625 -5.375 C 2.0625 -5.519531 2.722656 -5.59375 3.609375 -5.59375 C 3.960938 -5.59375 4.222656 -5.546875 4.390625 -5.453125 C 4.617188 -5.328125 4.734375 -5.101562 4.734375 -4.78125 C 4.734375 -4.15625 4.5625 -3.84375 4.21875 -3.84375 Z M 4.21875 -3.84375 "/></g></g></g><g fill="#ffffff" fill-opacity="1"><g transform="translate(174.117267, 167.95748)"><g><path d="M 4.375 -5.265625 C 4.414062 -6.460938 4.46875 -7.285156 4.53125 -7.734375 C 4.59375 -8.148438 4.820312 -8.359375 5.21875 -8.359375 C 5.425781 -8.359375 5.59375 -8.289062 5.71875 -8.15625 C 5.84375 -8.019531 5.90625 -7.859375 5.90625 -7.671875 C 5.90625 -7.160156 5.863281 -6.40625 5.78125 -5.40625 C 5.707031 -4.40625 5.671875 -3.648438 5.671875 -3.140625 C 5.671875 -1.898438 5.707031 -1.070312 5.78125 -0.65625 C 5.789062 -0.601562 5.796875 -0.550781 5.796875 -0.5 C 5.796875 -0.3125 5.726562 -0.15625 5.59375 -0.03125 C 5.457031 0.09375 5.296875 0.15625 5.109375 0.15625 C 4.847656 0.15625 4.65625 0.0390625 4.53125 -0.1875 C 4.289062 -0.0390625 4.039062 0.0625 3.78125 0.125 C 3.53125 0.195312 3.269531 0.234375 3 0.234375 C 2.21875 0.234375 1.566406 -0.015625 1.046875 -0.515625 C 0.515625 -1.023438 0.25 -1.671875 0.25 -2.453125 C 0.25 -3.398438 0.515625 -4.160156 1.046875 -4.734375 C 1.578125 -5.316406 2.273438 -5.609375 3.140625 -5.609375 C 3.398438 -5.609375 3.628906 -5.578125 3.828125 -5.515625 C 4.035156 -5.460938 4.21875 -5.378906 4.375 -5.265625 Z M 4.265625 -3.609375 C 4.148438 -3.835938 4 -4.003906 3.8125 -4.109375 C 3.625 -4.210938 3.40625 -4.265625 3.15625 -4.265625 C 2.632812 -4.265625 2.242188 -4.113281 1.984375 -3.8125 C 1.734375 -3.519531 1.609375 -3.078125 1.609375 -2.484375 C 1.609375 -2.097656 1.742188 -1.769531 2.015625 -1.5 C 2.296875 -1.238281 2.625 -1.109375 3 -1.109375 C 3.269531 -1.109375 3.472656 -1.140625 3.609375 -1.203125 C 3.703125 -1.242188 3.863281 -1.351562 4.09375 -1.53125 C 4.15625 -1.582031 4.210938 -1.640625 4.265625 -1.703125 C 4.253906 -1.867188 4.253906 -2.503906 4.265625 -3.609375 Z M 4.265625 -3.609375 "/></g></g></g><g fill="#ffffff" fill-opacity="1"><g transform="translate(180.415786, 167.95748)"><g><path d="M 3.171875 0.234375 C 2.335938 0.234375 1.65625 0.0351562 1.125 -0.359375 C 0.539062 -0.796875 0.25 -1.414062 0.25 -2.21875 C 0.25 -3.101562 0.476562 -3.847656 0.9375 -4.453125 C 1.457031 -5.140625 2.15625 -5.484375 3.03125 -5.484375 C 3.644531 -5.484375 4.148438 -5.382812 4.546875 -5.1875 C 5.078125 -4.925781 5.34375 -4.523438 5.34375 -3.984375 C 5.34375 -3.597656 5.128906 -3.253906 4.703125 -2.953125 C 4.503906 -2.816406 4.109375 -2.617188 3.515625 -2.359375 L 1.75 -1.578125 C 1.914062 -1.398438 2.117188 -1.265625 2.359375 -1.171875 C 2.597656 -1.078125 2.867188 -1.03125 3.171875 -1.03125 C 3.640625 -1.03125 4.035156 -1.128906 4.359375 -1.328125 C 4.648438 -1.492188 4.882812 -1.578125 5.0625 -1.578125 C 5.425781 -1.578125 5.609375 -1.398438 5.609375 -1.046875 C 5.609375 -0.648438 5.316406 -0.328125 4.734375 -0.078125 C 4.242188 0.128906 3.722656 0.234375 3.171875 0.234375 Z M 3.03125 -4.203125 C 2.707031 -4.203125 2.429688 -4.09375 2.203125 -3.875 C 1.972656 -3.664062 1.785156 -3.34375 1.640625 -2.90625 C 2.035156 -3.082031 2.429688 -3.253906 2.828125 -3.421875 C 3.296875 -3.628906 3.671875 -3.828125 3.953125 -4.015625 C 3.710938 -4.140625 3.40625 -4.203125 3.03125 -4.203125 Z M 3.03125 -4.203125 "/></g></g></g><g fill="#ffffff" fill-opacity="1"><g transform="translate(186.410636, 167.95748)"><g/></g></g><g fill="#ffffff" fill-opacity="1"><g transform="translate(191.059912, 167.95748)"><g><path d="M 5.28125 0.015625 C 5.195312 0.015625 5.0625 0 4.875 -0.03125 C 4.695312 -0.0625 4.566406 -0.078125 4.484375 -0.078125 L 2.9375 -0.078125 C 2.800781 -0.078125 2.597656 -0.0625 2.328125 -0.03125 C 2.066406 0 1.867188 0.015625 1.734375 0.015625 C 1.691406 0.015625 1.632812 0.0078125 1.5625 0 C 1.488281 -0.0195312 1.429688 -0.03125 1.390625 -0.03125 C 1.078125 -0.03125 0.863281 -0.15625 0.75 -0.40625 C 0.6875 -0.570312 0.65625 -0.820312 0.65625 -1.15625 C 0.65625 -1.8125 0.796875 -2.359375 1.078125 -2.796875 C 1.304688 -3.128906 1.671875 -3.46875 2.171875 -3.8125 C 2.640625 -4.125 3.109375 -4.429688 3.578125 -4.734375 C 4.128906 -5.140625 4.40625 -5.597656 4.40625 -6.109375 C 4.40625 -6.242188 4.296875 -6.375 4.078125 -6.5 C 3.859375 -6.632812 3.644531 -6.703125 3.4375 -6.703125 C 3.0625 -6.703125 2.664062 -6.535156 2.25 -6.203125 C 1.84375 -5.867188 1.5625 -5.703125 1.40625 -5.703125 C 1.21875 -5.703125 1.054688 -5.75 0.921875 -5.84375 C 0.742188 -5.957031 0.65625 -6.113281 0.65625 -6.3125 C 0.65625 -6.519531 0.742188 -6.703125 0.921875 -6.859375 C 1.335938 -7.234375 1.703125 -7.503906 2.015625 -7.671875 C 2.472656 -7.921875 2.945312 -8.046875 3.4375 -8.046875 C 4.039062 -8.046875 4.582031 -7.890625 5.0625 -7.578125 C 5.625 -7.210938 5.90625 -6.734375 5.90625 -6.140625 C 5.90625 -5.546875 5.769531 -5.046875 5.5 -4.640625 C 5.28125 -4.304688 4.941406 -3.976562 4.484375 -3.65625 C 4.046875 -3.382812 3.609375 -3.113281 3.171875 -2.84375 C 2.503906 -2.40625 2.148438 -1.910156 2.109375 -1.359375 C 2.296875 -1.378906 2.578125 -1.40625 2.953125 -1.4375 C 3.691406 -1.476562 4.222656 -1.5 4.546875 -1.5 C 4.847656 -1.5 5.144531 -1.4375 5.4375 -1.3125 C 5.800781 -1.144531 5.984375 -0.9375 5.984375 -0.6875 C 5.984375 -0.507812 5.921875 -0.347656 5.796875 -0.203125 C 5.660156 -0.0546875 5.488281 0.015625 5.28125 0.015625 Z M 5.28125 0.015625 "/></g></g></g><g fill="#ffffff" fill-opacity="1"><g transform="translate(197.604502, 167.95748)"><g><path d="M 3.203125 0.203125 C 2.046875 0.203125 1.207031 -0.296875 0.6875 -1.296875 C 0.300781 -2.035156 0.109375 -2.988281 0.109375 -4.15625 C 0.109375 -5.15625 0.363281 -6.035156 0.875 -6.796875 C 1.476562 -7.703125 2.304688 -8.15625 3.359375 -8.15625 C 4.359375 -8.15625 5.132812 -7.75 5.6875 -6.9375 C 6.15625 -6.257812 6.390625 -5.4375 6.390625 -4.46875 C 6.390625 -2.914062 6.125 -1.75 5.59375 -0.96875 C 5.0625 -0.1875 4.265625 0.203125 3.203125 0.203125 Z M 3.359375 -6.78125 C 2.796875 -6.78125 2.34375 -6.5 2 -5.9375 C 1.695312 -5.445312 1.546875 -4.878906 1.546875 -4.234375 C 1.546875 -3.390625 1.625 -2.734375 1.78125 -2.265625 C 2.039062 -1.523438 2.515625 -1.15625 3.203125 -1.15625 C 3.773438 -1.15625 4.203125 -1.414062 4.484375 -1.9375 C 4.773438 -2.457031 4.921875 -3.238281 4.921875 -4.28125 C 4.921875 -5.125 4.789062 -5.75 4.53125 -6.15625 C 4.269531 -6.570312 3.878906 -6.78125 3.359375 -6.78125 Z M 3.359375 -6.78125 "/></g></g></g><g fill="#ffffff" fill-opacity="1"><g transform="translate(204.149091, 167.95748)"><g><path d="M 3.203125 0.203125 C 2.046875 0.203125 1.207031 -0.296875 0.6875 -1.296875 C 0.300781 -2.035156 0.109375 -2.988281 0.109375 -4.15625 C 0.109375 -5.15625 0.363281 -6.035156 0.875 -6.796875 C 1.476562 -7.703125 2.304688 -8.15625 3.359375 -8.15625 C 4.359375 -8.15625 5.132812 -7.75 5.6875 -6.9375 C 6.15625 -6.257812 6.390625 -5.4375 6.390625 -4.46875 C 6.390625 -2.914062 6.125 -1.75 5.59375 -0.96875 C 5.0625 -0.1875 4.265625 0.203125 3.203125 0.203125 Z M 3.359375 -6.78125 C 2.796875 -6.78125 2.34375 -6.5 2 -5.9375 C 1.695312 -5.445312 1.546875 -4.878906 1.546875 -4.234375 C 1.546875 -3.390625 1.625 -2.734375 1.78125 -2.265625 C 2.039062 -1.523438 2.515625 -1.15625 3.203125 -1.15625 C 3.773438 -1.15625 4.203125 -1.414062 4.484375 -1.9375 C 4.773438 -2.457031 4.921875 -3.238281 4.921875 -4.28125 C 4.921875 -5.125 4.789062 -5.75 4.53125 -6.15625 C 4.269531 -6.570312 3.878906 -6.78125 3.359375 -6.78125 Z M 3.359375 -6.78125 "/></g></g></g><g fill="#ffffff" fill-opacity="1"><g transform="translate(210.693681, 167.95748)"><g><path d="M 5.28125 0.015625 C 5.195312 0.015625 5.0625 0 4.875 -0.03125 C 4.695312 -0.0625 4.566406 -0.078125 4.484375 -0.078125 L 2.9375 -0.078125 C 2.800781 -0.078125 2.597656 -0.0625 2.328125 -0.03125 C 2.066406 0 1.867188 0.015625 1.734375 0.015625 C 1.691406 0.015625 1.632812 0.0078125 1.5625 0 C 1.488281 -0.0195312 1.429688 -0.03125 1.390625 -0.03125 C 1.078125 -0.03125 0.863281 -0.15625 0.75 -0.40625 C 0.6875 -0.570312 0.65625 -0.820312 0.65625 -1.15625 C 0.65625 -1.8125 0.796875 -2.359375 1.078125 -2.796875 C 1.304688 -3.128906 1.671875 -3.46875 2.171875 -3.8125 C 2.640625 -4.125 3.109375 -4.429688 3.578125 -4.734375 C 4.128906 -5.140625 4.40625 -5.597656 4.40625 -6.109375 C 4.40625 -6.242188 4.296875 -6.375 4.078125 -6.5 C 3.859375 -6.632812 3.644531 -6.703125 3.4375 -6.703125 C 3.0625 -6.703125 2.664062 -6.535156 2.25 -6.203125 C 1.84375 -5.867188 1.5625 -5.703125 1.40625 -5.703125 C 1.21875 -5.703125 1.054688 -5.75 0.921875 -5.84375 C 0.742188 -5.957031 0.65625 -6.113281 0.65625 -6.3125 C 0.65625 -6.519531 0.742188 -6.703125 0.921875 -6.859375 C 1.335938 -7.234375 1.703125 -7.503906 2.015625 -7.671875 C 2.472656 -7.921875 2.945312 -8.046875 3.4375 -8.046875 C 4.039062 -8.046875 4.582031 -7.890625 5.0625 -7.578125 C 5.625 -7.210938 5.90625 -6.734375 5.90625 -6.140625 C 5.90625 -5.546875 5.769531 -5.046875 5.5 -4.640625 C 5.28125 -4.304688 4.941406 -3.976562 4.484375 -3.65625 C 4.046875 -3.382812 3.609375 -3.113281 3.171875 -2.84375 C 2.503906 -2.40625 2.148438 -1.910156 2.109375 -1.359375 C 2.296875 -1.378906 2.578125 -1.40625 2.953125 -1.4375 C 3.691406 -1.476562 4.222656 -1.5 4.546875 -1.5 C 4.847656 -1.5 5.144531 -1.4375 5.4375 -1.3125 C 5.800781 -1.144531 5.984375 -0.9375 5.984375 -0.6875 C 5.984375 -0.507812 5.921875 -0.347656 5.796875 -0.203125 C 5.660156 -0.0546875 5.488281 0.015625 5.28125 0.015625 Z M 5.28125 0.015625 "/></g></g></g></svg>